<mxfile host="app.diagrams.net" modified="2024-03-08T22:41:59.540Z" agent="Mozilla/5.0 (X11; Linux x86_64; rv:123.0) Gecko/20100101 Firefox/123.0" etag="5x46s8olfRjkRUnAhlKa" version="24.0.2" type="github">
  <diagram name="Page-1" id="404_kxYsZ5X8p2S8uvQf">
    <mxGraphModel dx="1647" dy="-85" grid="1" gridSize="10" guides="1" tooltips="1" connect="1" arrows="1" fold="1" page="1" pageScale="1" pageWidth="850" pageHeight="1100" math="0" shadow="0">
      <root>
        <mxCell id="0" />
        <mxCell id="1" parent="0" />
        <mxCell id="8ftiR1pAZEAG93mxzUA_-40" value="" style="shape=parallelogram;perimeter=parallelogramPerimeter;whiteSpace=wrap;html=1;fixedSize=1;size=143.25;fillColor=#000000;fillOpacity=20;" parent="1" vertex="1">
          <mxGeometry x="582.62" y="1768" width="593.25" height="190" as="geometry" />
        </mxCell>
        <mxCell id="0Rgwea09dTIiz1nyik_j-15" value="" style="rounded=0;whiteSpace=wrap;html=1;fillColor=none;" parent="1" vertex="1">
          <mxGeometry x="726" y="1126" width="44" height="20" as="geometry" />
        </mxCell>
        <mxCell id="8ftiR1pAZEAG93mxzUA_-39" value="" style="shape=parallelogram;perimeter=parallelogramPerimeter;whiteSpace=wrap;html=1;fixedSize=1;size=143.25;fillColor=#000000;fillOpacity=20;" parent="1" vertex="1">
          <mxGeometry x="582.62" y="1456" width="593.25" height="190" as="geometry" />
        </mxCell>
        <mxCell id="8ftiR1pAZEAG93mxzUA_-38" value="" style="shape=parallelogram;perimeter=parallelogramPerimeter;whiteSpace=wrap;html=1;fixedSize=1;size=143.25;fillColor=#000000;fillOpacity=20;" parent="1" vertex="1">
          <mxGeometry x="582.62" y="1146" width="593.25" height="190" as="geometry" />
        </mxCell>
        <mxCell id="8ftiR1pAZEAG93mxzUA_-18" value="" style="rounded=0;orthogonalLoop=1;jettySize=auto;html=1;startArrow=classic;startFill=1;" parent="1" source="8ftiR1pAZEAG93mxzUA_-8" target="8ftiR1pAZEAG93mxzUA_-17" edge="1">
          <mxGeometry relative="1" as="geometry" />
        </mxCell>
        <mxCell id="8ftiR1pAZEAG93mxzUA_-8" value="" style="verticalLabelPosition=bottom;sketch=0;html=1;fillColor=#A153A0;verticalAlign=top;align=center;pointerEvents=1;shape=mxgraph.cisco_safe.design.actor_1;" parent="1" vertex="1">
          <mxGeometry x="630" y="1900" width="23.5" height="50" as="geometry" />
        </mxCell>
        <mxCell id="8ftiR1pAZEAG93mxzUA_-16" value="" style="rounded=0;orthogonalLoop=1;jettySize=auto;html=1;startArrow=classic;startFill=1;" parent="1" source="8ftiR1pAZEAG93mxzUA_-9" target="8ftiR1pAZEAG93mxzUA_-15" edge="1">
          <mxGeometry relative="1" as="geometry" />
        </mxCell>
        <mxCell id="8ftiR1pAZEAG93mxzUA_-9" value="" style="verticalLabelPosition=bottom;sketch=0;html=1;fillColor=#A153A0;verticalAlign=top;align=center;pointerEvents=1;shape=mxgraph.cisco_safe.design.actor_2;" parent="1" vertex="1">
          <mxGeometry x="700" y="1830" width="19" height="50" as="geometry" />
        </mxCell>
        <mxCell id="8ftiR1pAZEAG93mxzUA_-10" value="" style="verticalLabelPosition=bottom;sketch=0;html=1;fillColor=#A153A0;verticalAlign=top;align=center;pointerEvents=1;shape=mxgraph.cisco_safe.design.actor_2;" parent="1" vertex="1">
          <mxGeometry x="1100" y="1740" width="19" height="50" as="geometry" />
        </mxCell>
        <mxCell id="8ftiR1pAZEAG93mxzUA_-11" value="" style="verticalLabelPosition=bottom;sketch=0;html=1;fillColor=#CC0000;verticalAlign=top;align=center;pointerEvents=1;shape=mxgraph.cisco_safe.design.actor_2;" parent="1" vertex="1">
          <mxGeometry x="1071" y="1123" width="19" height="50" as="geometry" />
        </mxCell>
        <mxCell id="0Rgwea09dTIiz1nyik_j-6" value="" style="rounded=0;orthogonalLoop=1;jettySize=auto;html=1;startArrow=classic;startFill=1;" parent="1" source="8ftiR1pAZEAG93mxzUA_-12" target="0Rgwea09dTIiz1nyik_j-5" edge="1">
          <mxGeometry relative="1" as="geometry" />
        </mxCell>
        <mxCell id="8ftiR1pAZEAG93mxzUA_-12" value="" style="verticalLabelPosition=bottom;sketch=0;html=1;fillColor=#FFFF33;verticalAlign=top;align=center;pointerEvents=1;shape=mxgraph.cisco_safe.design.actor_1;" parent="1" vertex="1">
          <mxGeometry x="1090" y="1490" width="23.5" height="50" as="geometry" />
        </mxCell>
        <mxCell id="8ftiR1pAZEAG93mxzUA_-14" value="" style="endArrow=classic;html=1;rounded=0;exitX=0.959;exitY=0.023;exitDx=0;exitDy=0;exitPerimeter=0;entryX=-0.056;entryY=1.019;entryDx=0;entryDy=0;entryPerimeter=0;startArrow=classic;startFill=1;" parent="1" source="8ftiR1pAZEAG93mxzUA_-8" target="8ftiR1pAZEAG93mxzUA_-9" edge="1">
          <mxGeometry width="50" height="50" relative="1" as="geometry">
            <mxPoint x="566" y="1890" as="sourcePoint" />
            <mxPoint x="616" y="1840" as="targetPoint" />
          </mxGeometry>
        </mxCell>
        <mxCell id="8ftiR1pAZEAG93mxzUA_-15" value="" style="verticalLabelPosition=bottom;sketch=0;html=1;fillColor=#A153A0;verticalAlign=top;align=center;pointerEvents=1;shape=mxgraph.cisco_safe.design.actor_2;" parent="1" vertex="1">
          <mxGeometry x="765" y="1780" width="19" height="50" as="geometry" />
        </mxCell>
        <mxCell id="8ftiR1pAZEAG93mxzUA_-17" value="" style="verticalLabelPosition=bottom;sketch=0;html=1;fillColor=#A153A0;verticalAlign=top;align=center;pointerEvents=1;shape=mxgraph.cisco_safe.design.actor_1;" parent="1" vertex="1">
          <mxGeometry x="750" y="1900" width="23.5" height="50" as="geometry" />
        </mxCell>
        <mxCell id="8ftiR1pAZEAG93mxzUA_-19" value="" style="rounded=0;orthogonalLoop=1;jettySize=auto;html=1;startArrow=classic;startFill=1;exitX=0.977;exitY=1.004;exitDx=0;exitDy=0;exitPerimeter=0;entryX=-0.003;entryY=0.291;entryDx=0;entryDy=0;entryPerimeter=0;" parent="1" source="8ftiR1pAZEAG93mxzUA_-9" target="8ftiR1pAZEAG93mxzUA_-17" edge="1">
          <mxGeometry relative="1" as="geometry">
            <mxPoint x="650" y="1994" as="sourcePoint" />
            <mxPoint x="773" y="1986" as="targetPoint" />
          </mxGeometry>
        </mxCell>
        <mxCell id="8ftiR1pAZEAG93mxzUA_-20" value="" style="rounded=0;orthogonalLoop=1;jettySize=auto;html=1;startArrow=classic;startFill=1;entryX=0.993;entryY=0.517;entryDx=0;entryDy=0;entryPerimeter=0;" parent="1" source="8ftiR1pAZEAG93mxzUA_-21" target="8ftiR1pAZEAG93mxzUA_-17" edge="1">
          <mxGeometry relative="1" as="geometry" />
        </mxCell>
        <mxCell id="8ftiR1pAZEAG93mxzUA_-21" value="" style="verticalLabelPosition=bottom;sketch=0;html=1;fillColor=#A153A0;verticalAlign=top;align=center;pointerEvents=1;shape=mxgraph.cisco_safe.design.actor_1;" parent="1" vertex="1">
          <mxGeometry x="850" y="1894" width="23.5" height="50" as="geometry" />
        </mxCell>
        <mxCell id="8ftiR1pAZEAG93mxzUA_-22" value="" style="rounded=0;orthogonalLoop=1;jettySize=auto;html=1;startArrow=classic;startFill=1;" parent="1" source="8ftiR1pAZEAG93mxzUA_-23" target="8ftiR1pAZEAG93mxzUA_-25" edge="1">
          <mxGeometry relative="1" as="geometry" />
        </mxCell>
        <mxCell id="8ftiR1pAZEAG93mxzUA_-23" value="" style="verticalLabelPosition=bottom;sketch=0;html=1;fillColor=#A153A0;verticalAlign=top;align=center;pointerEvents=1;shape=mxgraph.cisco_safe.design.actor_2;" parent="1" vertex="1">
          <mxGeometry x="891" y="1814" width="19" height="50" as="geometry" />
        </mxCell>
        <mxCell id="8ftiR1pAZEAG93mxzUA_-24" value="" style="endArrow=classic;html=1;rounded=0;exitX=0.959;exitY=0.023;exitDx=0;exitDy=0;exitPerimeter=0;entryX=-0.056;entryY=1.019;entryDx=0;entryDy=0;entryPerimeter=0;startArrow=classic;startFill=1;" parent="1" source="8ftiR1pAZEAG93mxzUA_-21" target="8ftiR1pAZEAG93mxzUA_-23" edge="1">
          <mxGeometry width="50" height="50" relative="1" as="geometry">
            <mxPoint x="776" y="1850" as="sourcePoint" />
            <mxPoint x="826" y="1800" as="targetPoint" />
          </mxGeometry>
        </mxCell>
        <mxCell id="8ftiR1pAZEAG93mxzUA_-25" value="" style="verticalLabelPosition=bottom;sketch=0;html=1;fillColor=#A153A0;verticalAlign=top;align=center;pointerEvents=1;shape=mxgraph.cisco_safe.design.actor_2;" parent="1" vertex="1">
          <mxGeometry x="820" y="1790" width="19" height="50" as="geometry" />
        </mxCell>
        <mxCell id="8ftiR1pAZEAG93mxzUA_-26" value="" style="verticalLabelPosition=bottom;sketch=0;html=1;fillColor=#A153A0;verticalAlign=top;align=center;pointerEvents=1;shape=mxgraph.cisco_safe.design.actor_1;" parent="1" vertex="1">
          <mxGeometry x="990" y="1880" width="23.5" height="50" as="geometry" />
        </mxCell>
        <mxCell id="8ftiR1pAZEAG93mxzUA_-27" value="" style="rounded=0;orthogonalLoop=1;jettySize=auto;html=1;startArrow=classic;startFill=1;exitX=0.977;exitY=1.004;exitDx=0;exitDy=0;exitPerimeter=0;entryX=-0.003;entryY=0.291;entryDx=0;entryDy=0;entryPerimeter=0;" parent="1" source="8ftiR1pAZEAG93mxzUA_-23" target="8ftiR1pAZEAG93mxzUA_-26" edge="1">
          <mxGeometry relative="1" as="geometry">
            <mxPoint x="860" y="1954" as="sourcePoint" />
            <mxPoint x="983" y="1946" as="targetPoint" />
          </mxGeometry>
        </mxCell>
        <mxCell id="8ftiR1pAZEAG93mxzUA_-28" value="" style="rounded=0;orthogonalLoop=1;jettySize=auto;html=1;startArrow=classic;startFill=1;exitX=0.332;exitY=1.031;exitDx=0;exitDy=0;exitPerimeter=0;entryX=0.896;entryY=-0.026;entryDx=0;entryDy=0;entryPerimeter=0;" parent="1" source="8ftiR1pAZEAG93mxzUA_-25" target="8ftiR1pAZEAG93mxzUA_-17" edge="1">
          <mxGeometry relative="1" as="geometry">
            <mxPoint x="695" y="1940" as="sourcePoint" />
            <mxPoint x="773" y="1975" as="targetPoint" />
          </mxGeometry>
        </mxCell>
        <mxCell id="8ftiR1pAZEAG93mxzUA_-33" value="" style="rounded=0;orthogonalLoop=1;jettySize=auto;html=1;startArrow=classic;startFill=1;" parent="1" source="8ftiR1pAZEAG93mxzUA_-29" target="8ftiR1pAZEAG93mxzUA_-26" edge="1">
          <mxGeometry relative="1" as="geometry" />
        </mxCell>
        <mxCell id="8ftiR1pAZEAG93mxzUA_-29" value="" style="verticalLabelPosition=bottom;sketch=0;html=1;fillColor=#A153A0;verticalAlign=top;align=center;pointerEvents=1;shape=mxgraph.cisco_safe.design.actor_2;" parent="1" vertex="1">
          <mxGeometry x="930" y="1780" width="19" height="50" as="geometry" />
        </mxCell>
        <mxCell id="8ftiR1pAZEAG93mxzUA_-30" value="" style="verticalLabelPosition=bottom;sketch=0;html=1;fillColor=#A153A0;verticalAlign=top;align=center;pointerEvents=1;shape=mxgraph.cisco_safe.design.actor_1;" parent="1" vertex="1">
          <mxGeometry x="1006" y="1754" width="23.5" height="50" as="geometry" />
        </mxCell>
        <mxCell id="8ftiR1pAZEAG93mxzUA_-31" value="" style="rounded=0;orthogonalLoop=1;jettySize=auto;html=1;startArrow=classic;startFill=1;exitX=1.043;exitY=0.668;exitDx=0;exitDy=0;exitPerimeter=0;entryX=-0.003;entryY=0.291;entryDx=0;entryDy=0;entryPerimeter=0;" parent="1" source="8ftiR1pAZEAG93mxzUA_-29" target="8ftiR1pAZEAG93mxzUA_-30" edge="1">
          <mxGeometry relative="1" as="geometry">
            <mxPoint x="908.37" y="1884" as="sourcePoint" />
            <mxPoint x="1031.37" y="1876" as="targetPoint" />
          </mxGeometry>
        </mxCell>
        <mxCell id="0Rgwea09dTIiz1nyik_j-4" value="" style="rounded=0;orthogonalLoop=1;jettySize=auto;html=1;startArrow=classic;startFill=1;" parent="1" source="8ftiR1pAZEAG93mxzUA_-36" target="0Rgwea09dTIiz1nyik_j-3" edge="1">
          <mxGeometry relative="1" as="geometry" />
        </mxCell>
        <mxCell id="8ftiR1pAZEAG93mxzUA_-36" value="" style="verticalLabelPosition=bottom;sketch=0;html=1;fillColor=#FFFF33;verticalAlign=top;align=center;pointerEvents=1;shape=mxgraph.cisco_safe.design.actor_2;" parent="1" vertex="1">
          <mxGeometry x="891" y="1576" width="19" height="50" as="geometry" />
        </mxCell>
        <mxCell id="0Rgwea09dTIiz1nyik_j-30" value="" style="rounded=0;orthogonalLoop=1;jettySize=auto;html=1;startArrow=classic;startFill=1;" parent="1" source="8ftiR1pAZEAG93mxzUA_-37" target="0Rgwea09dTIiz1nyik_j-29" edge="1">
          <mxGeometry relative="1" as="geometry" />
        </mxCell>
        <mxCell id="8ftiR1pAZEAG93mxzUA_-37" value="" style="verticalLabelPosition=bottom;sketch=0;html=1;fillColor=#CC0000;verticalAlign=top;align=center;pointerEvents=1;shape=mxgraph.cisco_safe.design.actor_1;" parent="1" vertex="1">
          <mxGeometry x="867.5" y="1177" width="23.5" height="50" as="geometry" />
        </mxCell>
        <mxCell id="0Rgwea09dTIiz1nyik_j-2" value="" style="rounded=0;orthogonalLoop=1;jettySize=auto;html=1;startArrow=classic;startFill=1;exitX=1.263;exitY=0.54;exitDx=0;exitDy=0;exitPerimeter=0;entryX=-0.085;entryY=0.7;entryDx=0;entryDy=0;entryPerimeter=0;" parent="1" source="8ftiR1pAZEAG93mxzUA_-36" target="8ftiR1pAZEAG93mxzUA_-12" edge="1">
          <mxGeometry relative="1" as="geometry">
            <mxPoint x="960" y="1769" as="sourcePoint" />
            <mxPoint x="1016" y="1725" as="targetPoint" />
          </mxGeometry>
        </mxCell>
        <mxCell id="0Rgwea09dTIiz1nyik_j-3" value="" style="verticalLabelPosition=bottom;sketch=0;html=1;fillColor=#FFFF33;verticalAlign=top;align=center;pointerEvents=1;shape=mxgraph.cisco_safe.design.actor_2;" parent="1" vertex="1">
          <mxGeometry x="792" y="1576" width="19" height="50" as="geometry" />
        </mxCell>
        <mxCell id="0Rgwea09dTIiz1nyik_j-5" value="" style="verticalLabelPosition=bottom;sketch=0;html=1;fillColor=#FFFF33;verticalAlign=top;align=center;pointerEvents=1;shape=mxgraph.cisco_safe.design.actor_1;" parent="1" vertex="1">
          <mxGeometry x="891" y="1490" width="23.5" height="50" as="geometry" />
        </mxCell>
        <mxCell id="0Rgwea09dTIiz1nyik_j-7" value="" style="rounded=0;orthogonalLoop=1;jettySize=auto;html=1;startArrow=classic;startFill=1;exitX=0.474;exitY=0.02;exitDx=0;exitDy=0;exitPerimeter=0;entryX=0.553;entryY=1.04;entryDx=0;entryDy=0;entryPerimeter=0;" parent="1" source="8ftiR1pAZEAG93mxzUA_-36" target="0Rgwea09dTIiz1nyik_j-5" edge="1">
          <mxGeometry relative="1" as="geometry">
            <mxPoint x="901" y="1611" as="sourcePoint" />
            <mxPoint x="821" y="1611" as="targetPoint" />
          </mxGeometry>
        </mxCell>
        <mxCell id="0Rgwea09dTIiz1nyik_j-14" value="&lt;font color=&quot;#cc0000&quot;&gt;Type1&lt;/font&gt;" style="text;html=1;align=center;verticalAlign=middle;resizable=0;points=[];autosize=1;strokeColor=none;fillColor=none;" parent="1" vertex="1">
          <mxGeometry x="716" y="1123" width="60" height="30" as="geometry" />
        </mxCell>
        <mxCell id="0Rgwea09dTIiz1nyik_j-16" value="" style="rounded=0;whiteSpace=wrap;html=1;fillColor=none;" parent="1" vertex="1">
          <mxGeometry x="726" y="1436" width="44" height="20" as="geometry" />
        </mxCell>
        <mxCell id="0Rgwea09dTIiz1nyik_j-17" value="&lt;font color=&quot;#ffff33&quot;&gt;Type2&lt;/font&gt;" style="text;html=1;align=center;verticalAlign=middle;resizable=0;points=[];autosize=1;strokeColor=none;fillColor=none;" parent="1" vertex="1">
          <mxGeometry x="716" y="1433" width="60" height="30" as="geometry" />
        </mxCell>
        <mxCell id="0Rgwea09dTIiz1nyik_j-18" value="" style="rounded=0;whiteSpace=wrap;html=1;fillColor=none;" parent="1" vertex="1">
          <mxGeometry x="726" y="1748" width="44" height="20" as="geometry" />
        </mxCell>
        <mxCell id="0Rgwea09dTIiz1nyik_j-19" value="&lt;font color=&quot;#a153a0&quot;&gt;Type3&lt;/font&gt;" style="text;html=1;align=center;verticalAlign=middle;resizable=0;points=[];autosize=1;strokeColor=none;fillColor=none;" parent="1" vertex="1">
          <mxGeometry x="716" y="1745" width="60" height="30" as="geometry" />
        </mxCell>
        <mxCell id="8ftiR1pAZEAG93mxzUA_-34" value="" style="rounded=0;orthogonalLoop=1;jettySize=auto;html=1;entryX=0.431;entryY=1;entryDx=0;entryDy=0;entryPerimeter=0;startArrow=classic;startFill=1;" parent="1" source="8ftiR1pAZEAG93mxzUA_-26" target="8ftiR1pAZEAG93mxzUA_-10" edge="1">
          <mxGeometry relative="1" as="geometry" />
        </mxCell>
        <mxCell id="0Rgwea09dTIiz1nyik_j-28" value="" style="rounded=0;orthogonalLoop=1;jettySize=auto;html=1;startArrow=classic;startFill=1;entryX=1.009;entryY=0.52;entryDx=0;entryDy=0;entryPerimeter=0;exitX=-0.069;exitY=0.649;exitDx=0;exitDy=0;exitPerimeter=0;" parent="1" source="8ftiR1pAZEAG93mxzUA_-11" target="8ftiR1pAZEAG93mxzUA_-37" edge="1">
          <mxGeometry relative="1" as="geometry">
            <mxPoint x="1100" y="1471" as="sourcePoint" />
            <mxPoint x="925" y="1471" as="targetPoint" />
          </mxGeometry>
        </mxCell>
        <mxCell id="0Rgwea09dTIiz1nyik_j-32" value="" style="rounded=0;orthogonalLoop=1;jettySize=auto;html=1;startArrow=classic;startFill=1;" parent="1" source="0Rgwea09dTIiz1nyik_j-29" target="0Rgwea09dTIiz1nyik_j-31" edge="1">
          <mxGeometry relative="1" as="geometry" />
        </mxCell>
        <mxCell id="0Rgwea09dTIiz1nyik_j-29" value="" style="verticalLabelPosition=bottom;sketch=0;html=1;fillColor=#CC0000;verticalAlign=top;align=center;pointerEvents=1;shape=mxgraph.cisco_safe.design.actor_1;" parent="1" vertex="1">
          <mxGeometry x="764" y="1177" width="23.5" height="50" as="geometry" />
        </mxCell>
        <mxCell id="0Rgwea09dTIiz1nyik_j-31" value="" style="verticalLabelPosition=bottom;sketch=0;html=1;fillColor=#CC0000;verticalAlign=top;align=center;pointerEvents=1;shape=mxgraph.cisco_safe.design.actor_1;" parent="1" vertex="1">
          <mxGeometry x="867.5" y="1256" width="23.5" height="50" as="geometry" />
        </mxCell>
        <mxCell id="0Rgwea09dTIiz1nyik_j-33" value="" style="rounded=0;orthogonalLoop=1;jettySize=auto;html=1;startArrow=classic;startFill=1;entryX=1.083;entryY=0.601;entryDx=0;entryDy=0;entryPerimeter=0;exitX=0.022;exitY=1.014;exitDx=0;exitDy=0;exitPerimeter=0;" parent="1" source="8ftiR1pAZEAG93mxzUA_-11" target="0Rgwea09dTIiz1nyik_j-31" edge="1">
          <mxGeometry relative="1" as="geometry">
            <mxPoint x="797" y="1221" as="sourcePoint" />
            <mxPoint x="878" y="1282" as="targetPoint" />
          </mxGeometry>
        </mxCell>
        <mxCell id="3WU5Y8xsvsnA2mtap3Ex-2" value="Virtual(type3 -&amp;gt; type2)" style="rounded=1;whiteSpace=wrap;html=1;" parent="1" vertex="1">
          <mxGeometry x="1050" y="1660" width="129.24" height="60" as="geometry" />
        </mxCell>
        <mxCell id="3WU5Y8xsvsnA2mtap3Ex-3" style="rounded=0;orthogonalLoop=1;jettySize=auto;html=1;exitX=0.75;exitY=0;exitDx=0;exitDy=0;entryX=0.468;entryY=1.02;entryDx=0;entryDy=0;entryPerimeter=0;" parent="1" source="3WU5Y8xsvsnA2mtap3Ex-2" target="8ftiR1pAZEAG93mxzUA_-12" edge="1">
          <mxGeometry relative="1" as="geometry" />
        </mxCell>
        <mxCell id="3WU5Y8xsvsnA2mtap3Ex-4" style="rounded=0;orthogonalLoop=1;jettySize=auto;html=1;exitX=0.25;exitY=0;exitDx=0;exitDy=0;entryX=1.158;entryY=0.84;entryDx=0;entryDy=0;entryPerimeter=0;" parent="1" source="3WU5Y8xsvsnA2mtap3Ex-2" target="8ftiR1pAZEAG93mxzUA_-36" edge="1">
          <mxGeometry relative="1" as="geometry" />
        </mxCell>
        <mxCell id="3WU5Y8xsvsnA2mtap3Ex-5" style="rounded=0;orthogonalLoop=1;jettySize=auto;html=1;exitX=0.25;exitY=1;exitDx=0;exitDy=0;entryX=0.681;entryY=0;entryDx=0;entryDy=0;entryPerimeter=0;endArrow=none;endFill=0;startArrow=classic;startFill=1;" parent="1" source="3WU5Y8xsvsnA2mtap3Ex-2" target="8ftiR1pAZEAG93mxzUA_-30" edge="1">
          <mxGeometry relative="1" as="geometry" />
        </mxCell>
        <mxCell id="3WU5Y8xsvsnA2mtap3Ex-6" style="rounded=0;orthogonalLoop=1;jettySize=auto;html=1;exitX=0.75;exitY=1;exitDx=0;exitDy=0;entryX=0.421;entryY=0.1;entryDx=0;entryDy=0;entryPerimeter=0;endArrow=none;endFill=0;startArrow=classic;startFill=1;" parent="1" source="3WU5Y8xsvsnA2mtap3Ex-2" target="8ftiR1pAZEAG93mxzUA_-10" edge="1">
          <mxGeometry relative="1" as="geometry" />
        </mxCell>
        <mxCell id="nPn_2-71ksG3-iKqa8in-1" value="Virtual(type2 -&amp;gt; type3)" style="rounded=1;whiteSpace=wrap;html=1;" parent="1" vertex="1">
          <mxGeometry x="850" y="1660" width="129.24" height="60" as="geometry" />
        </mxCell>
        <mxCell id="nPn_2-71ksG3-iKqa8in-2" style="rounded=0;orthogonalLoop=1;jettySize=auto;html=1;exitX=0.25;exitY=1;exitDx=0;exitDy=0;entryX=0.383;entryY=0;entryDx=0;entryDy=0;entryPerimeter=0;endArrow=classic;endFill=1;startArrow=none;startFill=0;" parent="1" source="nPn_2-71ksG3-iKqa8in-1" target="8ftiR1pAZEAG93mxzUA_-30" edge="1">
          <mxGeometry relative="1" as="geometry">
            <mxPoint x="1092" y="1730" as="sourcePoint" />
            <mxPoint x="1032" y="1764" as="targetPoint" />
          </mxGeometry>
        </mxCell>
        <mxCell id="nPn_2-71ksG3-iKqa8in-3" style="rounded=0;orthogonalLoop=1;jettySize=auto;html=1;exitX=1;exitY=1;exitDx=0;exitDy=0;entryX=0.368;entryY=-0.02;entryDx=0;entryDy=0;entryPerimeter=0;endArrow=classic;endFill=1;startArrow=none;startFill=0;" parent="1" source="nPn_2-71ksG3-iKqa8in-1" target="8ftiR1pAZEAG93mxzUA_-10" edge="1">
          <mxGeometry relative="1" as="geometry">
            <mxPoint x="1157" y="1730" as="sourcePoint" />
            <mxPoint x="1118" y="1755" as="targetPoint" />
          </mxGeometry>
        </mxCell>
        <mxCell id="nPn_2-71ksG3-iKqa8in-4" style="rounded=0;orthogonalLoop=1;jettySize=auto;html=1;exitX=0.263;exitY=1.06;exitDx=0;exitDy=0;entryX=0.25;entryY=0;entryDx=0;entryDy=0;endArrow=classic;endFill=1;startArrow=none;startFill=0;exitPerimeter=0;" parent="1" source="8ftiR1pAZEAG93mxzUA_-36" target="nPn_2-71ksG3-iKqa8in-1" edge="1">
          <mxGeometry relative="1" as="geometry">
            <mxPoint x="892" y="1730" as="sourcePoint" />
            <mxPoint x="1025" y="1764" as="targetPoint" />
          </mxGeometry>
        </mxCell>
        <mxCell id="nPn_2-71ksG3-iKqa8in-5" style="rounded=0;orthogonalLoop=1;jettySize=auto;html=1;exitX=0.085;exitY=1.04;exitDx=0;exitDy=0;entryX=0.75;entryY=0;entryDx=0;entryDy=0;endArrow=classic;endFill=1;startArrow=none;startFill=0;exitPerimeter=0;" parent="1" source="8ftiR1pAZEAG93mxzUA_-12" target="nPn_2-71ksG3-iKqa8in-1" edge="1">
          <mxGeometry relative="1" as="geometry">
            <mxPoint x="906" y="1639" as="sourcePoint" />
            <mxPoint x="892" y="1670" as="targetPoint" />
          </mxGeometry>
        </mxCell>
        <mxCell id="nPn_2-71ksG3-iKqa8in-6" value="Virtual( (type2,Alice) -&amp;gt; (type1,Max)" style="rounded=1;whiteSpace=wrap;html=1;" parent="1" vertex="1">
          <mxGeometry x="1077" y="1350" width="210" height="60" as="geometry" />
        </mxCell>
        <mxCell id="nPn_2-71ksG3-iKqa8in-7" value="Virtual((type1,Max) -&amp;gt; (type2, Alice)" style="rounded=1;whiteSpace=wrap;html=1;" parent="1" vertex="1">
          <mxGeometry x="857" y="1350" width="199.24" height="60" as="geometry" />
        </mxCell>
        <mxCell id="nPn_2-71ksG3-iKqa8in-8" style="rounded=0;orthogonalLoop=1;jettySize=auto;html=1;exitX=0.5;exitY=0;exitDx=0;exitDy=0;entryX=0.895;entryY=1.06;entryDx=0;entryDy=0;entryPerimeter=0;" parent="1" source="nPn_2-71ksG3-iKqa8in-6" target="8ftiR1pAZEAG93mxzUA_-11" edge="1">
          <mxGeometry relative="1" as="geometry" />
        </mxCell>
        <mxCell id="nPn_2-71ksG3-iKqa8in-9" style="rounded=0;orthogonalLoop=1;jettySize=auto;html=1;exitX=0.949;exitY=0.983;exitDx=0;exitDy=0;entryX=0.426;entryY=-0.08;entryDx=0;entryDy=0;entryPerimeter=0;exitPerimeter=0;" parent="1" source="nPn_2-71ksG3-iKqa8in-7" target="8ftiR1pAZEAG93mxzUA_-12" edge="1">
          <mxGeometry relative="1" as="geometry" />
        </mxCell>
        <mxCell id="nPn_2-71ksG3-iKqa8in-10" style="rounded=0;orthogonalLoop=1;jettySize=auto;html=1;exitX=0.681;exitY=-0.06;exitDx=0;exitDy=0;entryX=0.5;entryY=1;entryDx=0;entryDy=0;exitPerimeter=0;" parent="1" source="8ftiR1pAZEAG93mxzUA_-12" target="nPn_2-71ksG3-iKqa8in-6" edge="1">
          <mxGeometry relative="1" as="geometry">
            <mxPoint x="1125" y="1360" as="sourcePoint" />
            <mxPoint x="1098" y="1186" as="targetPoint" />
          </mxGeometry>
        </mxCell>
        <mxCell id="nPn_2-71ksG3-iKqa8in-11" style="rounded=0;orthogonalLoop=1;jettySize=auto;html=1;exitX=0.526;exitY=1.04;exitDx=0;exitDy=0;entryX=0.5;entryY=0;entryDx=0;entryDy=0;exitPerimeter=0;" parent="1" source="8ftiR1pAZEAG93mxzUA_-11" target="nPn_2-71ksG3-iKqa8in-7" edge="1">
          <mxGeometry relative="1" as="geometry">
            <mxPoint x="925" y="1420" as="sourcePoint" />
            <mxPoint x="1107" y="1501" as="targetPoint" />
          </mxGeometry>
        </mxCell>
        <mxCell id="hBDSrYq_m9CpTTxVlZOs-1" value="Virtual(type3 -&amp;gt; type2)" style="rounded=1;whiteSpace=wrap;html=1;" vertex="1" parent="1">
          <mxGeometry x="695" y="1660" width="129.24" height="60" as="geometry" />
        </mxCell>
        <mxCell id="hBDSrYq_m9CpTTxVlZOs-2" style="rounded=0;orthogonalLoop=1;jettySize=auto;html=1;exitX=0.75;exitY=1;exitDx=0;exitDy=0;entryX=0.421;entryY=0.1;entryDx=0;entryDy=0;entryPerimeter=0;endArrow=none;endFill=0;startArrow=classic;startFill=1;" edge="1" parent="1" source="hBDSrYq_m9CpTTxVlZOs-1">
          <mxGeometry relative="1" as="geometry">
            <mxPoint x="753" y="1745" as="targetPoint" />
          </mxGeometry>
        </mxCell>
        <mxCell id="hBDSrYq_m9CpTTxVlZOs-3" value="Virtual(type2 -&amp;gt; type3)" style="rounded=1;whiteSpace=wrap;html=1;" vertex="1" parent="1">
          <mxGeometry x="495" y="1660" width="129.24" height="60" as="geometry" />
        </mxCell>
        <mxCell id="hBDSrYq_m9CpTTxVlZOs-4" style="rounded=0;orthogonalLoop=1;jettySize=auto;html=1;exitX=1;exitY=1;exitDx=0;exitDy=0;entryX=0.368;entryY=-0.02;entryDx=0;entryDy=0;entryPerimeter=0;endArrow=classic;endFill=1;startArrow=none;startFill=0;" edge="1" parent="1" source="hBDSrYq_m9CpTTxVlZOs-3">
          <mxGeometry relative="1" as="geometry">
            <mxPoint x="802" y="1730" as="sourcePoint" />
            <mxPoint x="752" y="1739" as="targetPoint" />
          </mxGeometry>
        </mxCell>
        <mxCell id="hBDSrYq_m9CpTTxVlZOs-6" value="Virtual( (type2,Alice) -&amp;gt; (type1,Cass)" style="rounded=1;whiteSpace=wrap;html=1;" vertex="1" parent="1">
          <mxGeometry x="637" y="1350" width="210" height="60" as="geometry" />
        </mxCell>
        <mxCell id="hBDSrYq_m9CpTTxVlZOs-7" value="Virtual((type1,Cass) -&amp;gt; (type2, Alice)" style="rounded=1;whiteSpace=wrap;html=1;" vertex="1" parent="1">
          <mxGeometry x="417" y="1350" width="199.24" height="60" as="geometry" />
        </mxCell>
        <mxCell id="hBDSrYq_m9CpTTxVlZOs-8" style="rounded=0;orthogonalLoop=1;jettySize=auto;html=1;exitX=0;exitY=-0.02;exitDx=0;exitDy=0;entryX=0.919;entryY=1.067;entryDx=0;entryDy=0;exitPerimeter=0;entryPerimeter=0;" edge="1" parent="1" source="8ftiR1pAZEAG93mxzUA_-12" target="hBDSrYq_m9CpTTxVlZOs-6">
          <mxGeometry relative="1" as="geometry">
            <mxPoint x="1116" y="1497" as="sourcePoint" />
            <mxPoint x="1192" y="1420" as="targetPoint" />
          </mxGeometry>
        </mxCell>
        <mxCell id="hBDSrYq_m9CpTTxVlZOs-9" style="rounded=0;orthogonalLoop=1;jettySize=auto;html=1;exitX=0.75;exitY=0;exitDx=0;exitDy=0;entryX=0.489;entryY=1.02;entryDx=0;entryDy=0;entryPerimeter=0;" edge="1" parent="1" source="hBDSrYq_m9CpTTxVlZOs-6" target="0Rgwea09dTIiz1nyik_j-31">
          <mxGeometry relative="1" as="geometry">
            <mxPoint x="1100" y="1499" as="sourcePoint" />
            <mxPoint x="840" y="1424" as="targetPoint" />
          </mxGeometry>
        </mxCell>
        <mxCell id="hBDSrYq_m9CpTTxVlZOs-10" style="rounded=0;orthogonalLoop=1;jettySize=auto;html=1;exitX=-0.234;exitY=0.88;exitDx=0;exitDy=0;entryX=0.75;entryY=0;entryDx=0;entryDy=0;exitPerimeter=0;" edge="1" parent="1" source="0Rgwea09dTIiz1nyik_j-31" target="hBDSrYq_m9CpTTxVlZOs-7">
          <mxGeometry relative="1" as="geometry">
            <mxPoint x="1091" y="1185" as="sourcePoint" />
            <mxPoint x="967" y="1360" as="targetPoint" />
          </mxGeometry>
        </mxCell>
        <mxCell id="hBDSrYq_m9CpTTxVlZOs-11" style="rounded=0;orthogonalLoop=1;jettySize=auto;html=1;exitX=0.75;exitY=1;exitDx=0;exitDy=0;entryX=-0.213;entryY=0.3;entryDx=0;entryDy=0;entryPerimeter=0;" edge="1" parent="1" source="hBDSrYq_m9CpTTxVlZOs-7" target="8ftiR1pAZEAG93mxzUA_-12">
          <mxGeometry relative="1" as="geometry">
            <mxPoint x="872" y="1310" as="sourcePoint" />
            <mxPoint x="576" y="1360" as="targetPoint" />
          </mxGeometry>
        </mxCell>
      </root>
    </mxGraphModel>
  </diagram>
</mxfile>
